HIERARCHY
ROOT Hips
{
  OFFSET 0.0 0.0 0.0
  CHANNELS 6 Xposition Yposition Zposition Zrotation Yrotation Xrotation
  JOINT Chest
  {
    OFFSET 0.0 33.0 0.0
    CHANNELS 3 Zrotation Yrotation Xrotation
    JOINT Chest2
    {
      OFFSET 0.0 23.0 0.0
      CHANNELS 3 Zrotation Yrotation Xrotation
      JOINT Neck
      {
        OFFSET 0.0 7.0 0.0
        CHANNELS 3 Zrotation Yrotation Xrotation
        JOINT Head
        {
          OFFSET 0.0 15.0 0.0
          CHANNELS 3 Zrotation Yrotation Xrotation
          End Site
          {
            OFFSET 0.0 0.0 0.0
          }
        }
      }
      JOINT LeftShoulder
      {
        OFFSET -14.0 0.0 0.0
        CHANNELS 3 Zrotation Yrotation Xrotation
        JOINT LeftElbow
        {
          OFFSET -25.0 0.0 0.0
          CHANNELS 3 Zrotation Yrotation Xrotation
          JOINT LeftWrist
          {
            OFFSET -23.0 0.0 0.0
            CHANNELS 3 Zrotation Yrotation Xrotation
            JOINT LeftHand
            {
              OFFSET -8.32 0.0 0.0
              CHANNELS 3 Zrotation Yrotation Xrotation
              End Site
              {
                OFFSET 0.0 0.0 0.0
              }
            }
          }
        }
      }
      JOINT RightShoulder
      {
        OFFSET 14.0 0.0 0.0
        CHANNELS 3 Zrotation Yrotation Xrotation
        JOINT RightElbow
        {
          OFFSET 25.0 0.0 0.0
          CHANNELS 3 Zrotation Yrotation Xrotation
          JOINT RightWrist
          {
            OFFSET 23.0 0.0 0.0
            CHANNELS 3 Zrotation Yrotation Xrotation
            JOINT RightHand
            {
              OFFSET 8.32 0.0 0.0
              CHANNELS 3 Zrotation Yrotation Xrotation
              End Site
              {
                OFFSET 0.0 0.0 0.0
              }
            }
          }
        }
      }
    }
  }
  JOINT HipLeft
  {
    OFFSET -9.52 0.0 0.0
    CHANNELS 3 Zrotation Yrotation Xrotation
    JOINT LeftKnee
    {
      OFFSET 0.0 -37.32 0.0
      CHANNELS 3 Zrotation Yrotation Xrotation
      JOINT LeftAnkle
      {
        OFFSET 0.0 -34.6 0.0
        CHANNELS 3 Zrotation Yrotation Xrotation
        JOINT LeftFoot
        {
          OFFSET 0.0 0.0 8.91
          CHANNELS 3 Zrotation Yrotation Xrotation
          End Site
          {
            OFFSET 0.0 0.0 0.0
          }
        }
      }
    }
  }
  JOINT RightHip
  {
    OFFSET 9.52 0.0 0.0
    CHANNELS 3 Zrotation Yrotation Xrotation
    JOINT RightKnee
    {
      OFFSET 0.0 -37.32 0.0
      CHANNELS 3 Zrotation Yrotation Xrotation
      JOINT RightAnkle
      {
        OFFSET 0.0 -34.6 0.0
        CHANNELS 3 Zrotation Yrotation Xrotation
        JOINT RightFoot
        {
          OFFSET 0.0 0.0 8.91
          CHANNELS 3 Zrotation Yrotation Xrotation
          End Site
          {
            OFFSET 0.0 0.0 0.0
          }
        }
      }
    }
  }
}
MOTION
Frames: 10
Frame Time: 0.03333300151400454
-13.65991 35.30531 233.56443 178.35974 -1.33352 -171.79995 -0.01696 -0.05547 1.53391 -1.78773 -0.02062 4.55158 0.0 -0.0 -0.0 0.0 -0.0 -0.0 84.08771 4.31028 19.66225 -2.60676 18.87983 78.08831 4.01018 20.93798 1.41779 0.0 -0.0 -0.0 -78.64178 13.55084 -8.42161 -0.0 -32.51374 -143.67834 3.90569 11.00505 0.2598 -0.0 0.0 -0.0 11.274 -16.25416 -19.86967 1.59945 15.11113 1.67475 -180.0 -0.0 -32.45191 -0.0 0.0 0.0 -13.80283 0.34651 -12.33272 6.16202 5.88334 47.87181 -180.0 -0.0 32.04141 0.0 -0.0 0.0
-13.70422 35.29641 233.56772 178.45055 -1.30895 -171.91756 -0.01528 -0.05362 1.5241 -1.79284 -0.0161 4.54491 0.0 -0.0 -0.0 0.0 -0.0 -0.0 84.27991 4.17568 19.7284 -2.47909 18.84711 79.75645 3.33192 21.65494 1.21439 0.0 -0.0 -0.0 -78.66474 13.53669 -8.11774 -0.0 -32.30663 -143.9073 3.74041 11.17122 0.2928 -0.0 0.0 -0.0 11.52623 -16.11915 -19.94563 1.4654 15.19053 1.82596 180.0 -0.0 -32.07055 -0.0 0.0 0.0 -13.71005 0.51725 -12.47581 6.14991 5.87165 48.3362 180.0 -0.0 32.45485 0.0 -0.0 0.0
-13.74289 35.28863 233.56877 178.53916 -1.28525 -172.0302 -0.01384 -0.05196 1.51802 -1.79312 -0.01207 4.53841 -0.0 -0.0 -0.0 -0.0 -0.0 -0.0 84.44769 4.04474 19.78987 -2.34421 18.82378 81.2088 2.70985 22.23892 1.03233 0.0 -0.0 -0.0 -78.69012 13.52138 -7.78916 -0.0 -32.10576 -144.16068 3.56936 11.31976 0.32549 -0.0 0.0 -0.0 11.79635 -15.97638 -20.03291 1.26176 15.27188 1.99958 -180.0 -0.0 -31.71715 -0.0 0.0 0.0 -13.60934 0.69751 -12.60268 6.14021 5.84095 48.78359 -180.0 -0.0 32.81971 0.0 0.0 0.0
-13.7781 35.28191 233.56864 178.62435 -1.2625 -172.13801 -0.0113 -0.05057 1.51617 -1.79123 -0.00857 4.53137 0.0 -0.0 -0.0 0.0 -0.0 -0.0 84.59264 3.91539 19.84641 -2.21747 18.80908 82.49096 2.12636 22.69192 0.86447 0.0 -0.0 -0.0 -78.71772 13.50579 -7.4407 -0.0 -31.91156 -144.4341 3.39419 11.45475 0.35782 -0.0 -0.0 -0.0 12.07349 -15.82903 -20.13114 1.00822 15.35088 2.19559 180.0 -0.0 -31.38975 -0.0 0.0 0.0 -13.50577 0.87541 -12.71406 6.13761 5.80098 49.20567 180.0 -0.0 33.13513 0.0 0.0 0.0
-13.81135 35.27618 233.56819 178.70573 -1.24044 -172.24142 -0.00631 -0.04952 1.51877 -1.78816 -0.00569 4.52505 -0.0 -0.0 -0.0 -0.0 -0.0 -0.0 84.71349 3.78814 19.89805 -2.10133 18.80205 83.62234 1.56765 23.02101 0.70582 0.0 -0.0 -0.0 -78.74948 13.48797 -7.08872 -0.0 -31.72325 -144.71352 3.22837 11.59547 0.39204 -0.0 -0.0 -0.0 12.31701 -15.6969 -20.21213 0.78619 15.40922 2.38003 -180.0 -0.0 -31.1098 -0.0 0.0 0.0 -13.40333 1.04427 -12.80617 6.14242 5.757 49.59295 -180.0 -0.0 33.40396 0.0 0.0 0.0
-13.84332 35.2714 233.56774 178.78218 -1.21874 -172.34007 0.00016 -0.04878 1.5243 -1.78571 -0.00335 4.51881 0.0 -0.0 -0.0 0.0 -0.0 -0.0 84.81305 3.65976 19.94508 -2.00203 18.80414 84.6147 1.01572 23.24372 0.54938 0.0 -0.0 -0.0 -78.78467 13.46924 -6.73395 -0.0 -31.53698 -144.99778 3.05378 11.75492 0.42594 -0.0 -0.0 -0.0 12.52213 -15.58182 -20.27356 0.60351 15.44657 2.55009 180.0 -0.0 -30.87384 -0.0 0.0 0.0 -13.30535 1.20134 -12.88159 6.15357 5.71109 49.94493 180.0 -0.0 33.62896 0.0 0.0 0.0
-13.87496 35.26746 233.56786 178.85304 -1.19726 -172.43404 0.00855 -0.04839 1.53244 -1.78668 -0.00147 4.51116 0.0 -0.0 -0.0 0.0 -0.0 -0.0 84.89269 3.52966 19.98791 -1.9175 18.81149 85.48297 0.45771 23.36415 0.39167 0.0 -0.0 -0.0 -78.82207 13.45001 -6.37592 -0.0 -31.34518 -145.28664 2.86308 11.94485 0.45978 -0.0 -0.0 -0.0 12.69233 -15.48144 -20.3196 0.45309 15.46523 2.70861 -180.0 -0.0 -30.67562 -0.0 0.0 0.0 -13.21439 1.34561 -12.94322 6.1711 5.6652 50.26483 -180.0 -0.0 33.81626 0.0 0.0 0.0
-13.90679 35.26423 233.56893 178.91724 -1.17731 -172.52305 0.01817 -0.04833 1.54237 -1.79257 1e-05 4.50075 0.0 -0.0 -0.0 0.0 -0.0 -0.0 84.95448 3.39649 20.0255 -1.84285 18.81936 86.22848 -0.10136 23.38204 0.2364 0.0 -0.0 -0.0 -78.86107 13.43069 -6.01504 -0.0 -31.14658 -145.57771 2.64662 12.18143 0.49336 -0.0 -0.0 -0.0 12.82983 -15.39589 -20.3528 0.33205 15.46761 2.85524 180.0 -0.0 -30.51212 -0.0 0.0 0.0 -13.13299 1.47499 -12.99042 6.19428 5.62151 50.54935 180.0 -0.0 33.9682 0.0 0.0 0.0
-13.93922 35.26164 233.57129 178.97438 -1.15875 -172.60715 0.02854 -0.0486 1.55351 -1.80362 0.00109 4.48669 0.0 -0.0 -0.0 0.0 -0.0 -0.0 85.00099 3.25534 20.05788 -1.77996 18.82951 86.86389 -0.67599 23.30783 0.07852 0.0 -0.0 -0.0 -78.90108 13.41281 -5.65422 -0.0 -30.95072 -145.86847 2.43311 12.41554 0.52781 -0.0 -0.0 -0.0 12.93745 -15.32346 -20.37572 0.23707 15.45608 2.99032 -180.0 -0.0 -30.38059 -0.0 0.0 0.0 -13.06262 1.58823 -13.02557 6.22383 5.58188 50.80172 -180.0 -0.0 34.09178 0.0 0.0 0.0
-13.97122 35.25952 233.57453 179.0253 -1.14114 -172.68648 0.03884 -0.04913 1.56482 -1.81832 0.00176 4.46807 0.0 -0.0 -0.0 0.0 -0.0 -0.0 85.03492 3.10155 20.08573 -1.73094 18.8435 87.40205 -1.27653 23.15293 -0.08526 0.0 -0.0 -0.0 -78.94146 13.39793 -5.29513 -0.0 -30.76152 -146.15776 2.22122 12.63942 0.56146 -0.0 -0.0 -0.0 13.02039 -15.26239 -20.38881 0.16286 15.43381 3.11121 180.0 -0.0 -30.27953 -0.0 0.0 0.0 -13.00133 1.6883 -13.05169 6.25718 5.54462 51.02869 180.0 -0.0 34.19391 0.0 0.0 0.0
